<svg xmlns="http://www.w3.org/2000/svg" viewBox="0 0 500 500" role="img" aria-labelledby="title desc">
  <title id="title">Stylised silhouette map of mainland France</title>
  <desc id="desc">An original, simplified outline of mainland France for the Somm Atlas interface.</desc>
  <path
    d="M248 30C274 35 299 47 320 61C342 75 368 85 388 104C407 123 424 149 439 176C450 196 458 220 451 239C443 260 425 274 411 291C398 307 392 327 377 342C357 363 330 376 307 392C280 410 261 441 232 456C210 467 184 465 161 456C137 447 116 430 99 409C81 387 63 364 54 337C46 312 42 285 45 260C48 233 62 209 72 185C83 159 88 130 105 109C122 88 147 76 168 64C190 51 217 25 248 30Z"
    fill="currentColor"
  />
  <path
    d="M248 30C274 35 299 47 320 61C342 75 368 85 388 104C407 123 424 149 439 176C450 196 458 220 451 239C443 260 425 274 411 291C398 307 392 327 377 342C357 363 330 376 307 392C280 410 261 441 232 456C210 467 184 465 161 456C137 447 116 430 99 409C81 387 63 364 54 337C46 312 42 285 45 260C48 233 62 209 72 185C83 159 88 130 105 109C122 88 147 76 168 64C190 51 217 25 248 30Z"
    fill="none"
    stroke="currentColor"
    stroke-linejoin="round"
    stroke-width="8"
    opacity=".36"
  />
</svg>
