<svg xmlns="http://www.w3.org/2000/svg" viewBox="0 0 500 500" role="img" aria-labelledby="title desc">
  <!-- Boundary source: Natural Earth, Admin 0 Countries, 1:50m, v5.1.1. Public domain. https://www.naturalearthdata.com/downloads/50m-cultural-vectors/50m-admin-0-countries-2/ -->
  <!-- Projected with d3-geo Mercator and simplified only by the source dataset's 1:50m generalisation. -->
  <title id="title">Map outline of metropolitan France</title>
  <desc id="desc">A geographically based outline of continental France and Corsica, derived from Natural Earth public-domain boundaries.</desc>
  <path d="M485.471,420.659L484.601,427.304L485.234,429.248L486.435,430.602L486.994,432.09L488,449.711L487.808,451.109L483.744,458.153L482.829,460.217L482.627,468.918L481.942,471.25L480.501,473.549L477.927,480.97L475.69,484.302L469.603,480.238L466.012,478.48L464.253,476.583L463.104,475.272L463.844,473.525L465.48,471.707L465.74,470.277L461.89,468.654L460.127,467.571L460.15,465.673L461.481,462.71L460.873,460.265L458.653,460.39L456.932,460.017L456.708,458.746L457.981,457.118L459.614,454.99L459.562,452.639L457.588,451.626L455.799,449.715L455.082,447.115L456.468,445.334L458.715,444.185L457.065,441.516L455.952,441.456L455.062,440.872L455.79,439.631L457.536,437.773L459.964,432.22L463.347,429.594L469.333,427.904L470.953,427.165L472.44,425.207L474.086,423.943L476.086,424.111L477.93,424.869L479.066,425.675L479.92,424.835L480.751,422.404L480.241,420.268L480.504,414.382L481.575,411.039L483.306,410.852L484.903,412.692L484.822,414.318L485.413,418.163ZM423.482,194.612L419.469,196.847L418.554,198.801L416.98,201.383L414.425,202.468L411.85,202.828L409.769,202.487L408.584,201.455L408.643,200.495L407.539,199.678L404.793,199.702L401.965,201.479L399.706,204.377L400.407,205.998L402.488,206.424L403.036,207.066L403.036,207.897L402.303,208.9L401.423,210.609L397.057,215.699L392.648,220.824L391.944,222.373L390.544,223.453L384.941,226.182L384.354,227.276L384.036,231.828L383.409,235.56L379.254,239.068L375.118,242.556L374.085,244.686L373.332,247.148L372.034,249.925L371.777,251.39L373.871,253.779L373.628,255.753L372.962,258.556L370.975,260.542L368.778,261.666L368.826,264.714L369.995,265.14L372.654,264.915L376.403,262.705L378.848,259.861L377.406,257.158L377.228,256.629L377.575,255.995L380.474,253.052L384.032,251.277L388.996,250.947L394.976,251.988L395.573,252.428L395.284,254.233L395.843,256.893L396.927,258.758L395.44,264.046L396.557,265.7L398.297,267.678L399.602,269.482L401.478,271.14L403.147,273.929L403.718,275.509L401.05,278.252L396.518,280.82L396.008,282.464L396.066,284.332L396.576,285.801L399.076,287.688L401.767,291.957L403.471,295.757L407.208,299.397L408.117,300.475L407.883,301.383L406.9,302.931L405.621,308.086L404.095,308.904L402.394,309.236L397.774,313.005L395.716,312.55L392.788,312.598L390.642,313.838L390.876,316.183L392.758,318.327L393.865,320.659L394.313,323.083L396.404,324.878L399.339,325.949L401.017,326.023L402.114,326.666L402.773,327.497L404.036,332.676L403.28,333.973L401.699,334.525L400.754,336.652L398.868,339.784L397.797,342.296L398.982,344.505L399.488,346.14L398.855,347.821L399.699,350.439L401.929,353.027L407.984,356.662L413.607,359.615L415.347,360.105L422.943,358.208L424.199,358.37L425.125,360.632L425.527,362.153L424.673,364.444L422.618,367.596L420.391,370.105L419.041,372.236L419.323,374.169L419.411,376.739L417.6,377.508L417.541,377L416.794,376.566L416.148,376.822L415.652,377.38L415.574,378.368L411.711,380.007L409.049,381.706L398.521,391.834L393.596,394.796L392.625,396.58L391.622,399.91L388.73,402.766L386.198,404.124L379.926,405.516L373.628,408.538L370.79,407.235L363.441,407.375L358.857,403.734L350.046,401.423L347.176,396.107L343.164,395.761L340.534,395.921L338.963,395.115L338.554,393.3L338.518,391.55L335.733,392.354L333.603,392.354L332.334,393.056L331.331,393.865L330.146,393.349L329.458,393.523L329.519,394.553L326.961,394.81L324.189,394.178L316.911,391.427L315.794,391.006L310.743,389.942L308.701,388.841L307.048,386.118L305.785,385.256L305.039,384.74L300.325,386.116L298.689,388.259L296.134,390.767L278.652,403.033L275.461,408.156L271.767,415.684L271.478,419.188L273.069,430.364L276.623,436.214L277.075,437.567L275.104,437.573L271.796,436.843L269.05,435.941L266.436,436.445L263.917,437.652L261.716,438.382L260.135,438.587L259.077,439.284L258.57,440.674L258.466,441.647L255.684,441.408L249.25,439.407L243.465,438.026L240.073,439.596L237.891,441.061L236.356,440.837L235.19,439.295L234.408,437.784L232.142,436.399L227.032,434.314L227.295,433.308L228.168,431.905L228.142,431.038L227.159,429.751L222.448,428.37L220.228,428.021L218.816,428.972L217.799,430.137L215.176,425.854L213.31,424.981L210.485,424.838L207.255,423.53L203.895,421.858L195.731,419.181L193.484,418.86L192.585,419.285L191.984,420.885L191.66,425.403L191.316,425.902L187.527,426.052L182.859,425.425L180.72,425.737L178.811,425.752L177.012,424.557L168.95,425.924L167.609,425.257L165.663,423.218L163.493,421.571L161.806,420.726L160.368,419.756L159.063,419.599L157.073,420.538L154.323,420.936L152.041,420.814L150.824,420.951L145.712,415.938L144.966,414.564L142.421,414.183L139.275,414.123L131.243,410.868L127.586,409.118L127.051,408.078L127.101,407.235L126.476,407.418L125.35,408.907L124.759,410.119L123.977,410.346L122.822,410.157L121.756,409.475L121.103,408.593L121.803,407.053L123.027,405.043L123.535,402.855L123.423,400.895L121.394,399.635L118.411,399.109L116.227,398.96L113.379,397.838L112.035,397.031L110.723,394.843L110.679,393.253L116.085,391.847L120.957,386.085L125.574,365.065L128.914,340.003L131.398,335.242L134.517,333.932L131.993,330.461L130.414,332.219L129.752,334.082L128.924,335.014L130.791,311.788L132.12,303.234L134.383,294.242L139.012,297.815L142.849,301.434L144.833,304.571L147.344,314.993L149.243,317.174L152.085,319.362L150.962,316.974L149.006,315.147L145.948,301.247L144.031,297.297L141.043,293.969L131.425,286.947L130.56,285.59L130.096,282.901L133.274,283.015L136.02,284.323L135.696,282.817L134.881,281.244L133.605,275.53L132.542,262.14L132.686,259.84L132.213,257.017L129.137,256.385L126.677,256.27L124.028,255.153L110.929,247.207L106.445,238.983L101.859,232.895L100.759,230.235L100.832,227.537L103.205,221.83L101.109,218.219L99.061,217.501L97.282,215.711L98.894,212.727L100.233,210.817L102.916,210.296L106.435,210.929L109.774,212.658L112.392,213.117L104.651,208.477L92.097,210.042L89.391,209.444L87.108,208.41L86.213,204.998L87.999,203.459L89.615,200.61L87.786,198.607L85.415,197.847L81.696,197.891L78.226,198.496L77.346,197.345L79.463,194.164L77.664,192.994L75.265,193.541L71.785,194.2L68.456,193.201L65.31,189.582L63.224,189.608L61.791,190.054L59.666,188.66L57.43,188.31L55.832,188.774L53.709,186.693L40.641,182.516L34.997,182.005L29.821,183.899L26.972,183.241L24.878,180.539L23.12,176L14.782,172.494L16.431,170.192L20.314,169.648L24.787,168.05L26.396,166L22.9,163.606L20.32,163.019L19.252,162.159L18.162,160.008L19.707,159.024L20.796,159.547L23.94,159.857L29.323,159.327L27.316,157.157L25.234,156.673L24.278,156.128L19.902,155.894L17.91,156.634L13.433,156.353L12.464,154.007L12,151.991L13.388,147.494L19.689,143.47L35.39,139.064L42.146,139.708L46.829,138.914L52.44,136.132L54.917,133.748L62.896,132.34L70.483,134.871L77.476,144.42L80.818,147.648L89,142.046L101.192,142.21L103.71,145.375L104.726,142.709L106.967,139.588L108.754,141.011L109.66,142.94L122.527,142.392L124.561,141.829L121.103,139.563L118.278,134.122L117.692,114.011L114.127,108.368L110.035,99.328L108.152,93.95L107.975,92.089L108.605,89.398L113.635,89.544L117.521,90.226L124.918,88.191L128.478,89.584L128.268,93.79L129.354,99.086L130.594,101.646L132.471,104.555L138.434,104.286L144.87,105.994L153.002,106.258L164.884,109.204L169.947,107.499L174.844,103.859L184.177,101.464L184.92,100.195L179.548,100.702L174.62,98.391L173.954,95.877L174.526,93.619L176.525,88.41L190.803,80.177L201.038,77.738L211.722,73.189L217.098,68.516L220.65,62.47L221.792,61.138L223.266,60.021L221.896,57.85L222.825,34.569L223.825,30.351L225.909,26.901L229.081,24.228L233.895,21.329L251.62,17.318L254.253,15.698L254.623,18.217L255.912,21.437L256.798,23.195L256.061,25.49L256.642,27.379L259.048,30.775L262.047,33.971L264.719,36.012L265.472,35.789L267.452,35.21L270.806,33.116L273.598,32.457L275.195,34.061L276.097,34.966L277.857,38.574L278.35,42.336L279.133,45.455L280.558,46.719L285.901,47.133L289.839,48.288L290.881,49.334L292.229,56.244L292.962,57.22L293.943,56.406L294.913,55.27L296.261,55.089L298.572,55.527L301.617,55.664L304.756,56.424L309.093,60.318L308.928,61.602L308.081,63.854L307.785,65.651L308.532,66.372L309.678,68.225L309.402,70.365L308.285,71.863L307.837,73.098L307.844,73.901L308.253,74.568L309.142,75.153L315.547,75.943L321.407,75.153L325.101,72.972L325.731,70.673L326.78,68.073L328.981,65.896L330.503,65.164L331.896,66.061L329.552,75.188L331.263,77.516L331.516,80.992L332.13,84.031L334.223,83.973L336.762,84.534L338.561,85.657L340.658,87.461L343.68,89.117L345.8,89.699L346.569,91.084L348.283,92.683L350.981,96.033L353.396,98.266L354.562,98.259L356.812,97.378L360.149,96.816L362.785,96.863L363.905,98.564L366.495,99.348L367.411,99.973L368.427,101.144L370.154,101.614L372.238,101.144L373.761,99.581L375.793,98.878L377.825,99.113L378.994,99.973L381.221,101.242L382.481,100.964L385.003,101.746L387.535,104.209L388.6,106.684L388.879,108.036L389.973,109.505L394.223,116.136L395.58,116.464L397.057,115.459L398.014,114.033L399.4,113.75L401.631,114.406L403.066,115.156L403.754,118.025L404.238,118.57L405.202,117.953L406.919,117.816L409.662,118.523L413.434,117.714L416.454,116.519L417.996,116.563L420.486,119.906L423.326,121.155L429.585,122.163L436.302,123.733L438.941,125.002L440.743,125.625L440.925,130.035L440.382,130.699L433.692,139.516L430.874,142.662L429.439,147.146L428.452,154.007L426.475,160.508L423.514,166.657L422.437,171.261L423.245,174.329L422.739,179.14L420.921,185.679L420.615,190.609L421.813,193.931ZM131.148,276.548L129.976,280.722L127.759,276.879L124.819,273.507L124.149,270.382L124.155,269.548L127.599,271.832Z" fill="currentColor" />
  <path d="M485.471,420.659L484.601,427.304L485.234,429.248L486.435,430.602L486.994,432.09L488,449.711L487.808,451.109L483.744,458.153L482.829,460.217L482.627,468.918L481.942,471.25L480.501,473.549L477.927,480.97L475.69,484.302L469.603,480.238L466.012,478.48L464.253,476.583L463.104,475.272L463.844,473.525L465.48,471.707L465.74,470.277L461.89,468.654L460.127,467.571L460.15,465.673L461.481,462.71L460.873,460.265L458.653,460.39L456.932,460.017L456.708,458.746L457.981,457.118L459.614,454.99L459.562,452.639L457.588,451.626L455.799,449.715L455.082,447.115L456.468,445.334L458.715,444.185L457.065,441.516L455.952,441.456L455.062,440.872L455.79,439.631L457.536,437.773L459.964,432.22L463.347,429.594L469.333,427.904L470.953,427.165L472.44,425.207L474.086,423.943L476.086,424.111L477.93,424.869L479.066,425.675L479.92,424.835L480.751,422.404L480.241,420.268L480.504,414.382L481.575,411.039L483.306,410.852L484.903,412.692L484.822,414.318L485.413,418.163ZM423.482,194.612L419.469,196.847L418.554,198.801L416.98,201.383L414.425,202.468L411.85,202.828L409.769,202.487L408.584,201.455L408.643,200.495L407.539,199.678L404.793,199.702L401.965,201.479L399.706,204.377L400.407,205.998L402.488,206.424L403.036,207.066L403.036,207.897L402.303,208.9L401.423,210.609L397.057,215.699L392.648,220.824L391.944,222.373L390.544,223.453L384.941,226.182L384.354,227.276L384.036,231.828L383.409,235.56L379.254,239.068L375.118,242.556L374.085,244.686L373.332,247.148L372.034,249.925L371.777,251.39L373.871,253.779L373.628,255.753L372.962,258.556L370.975,260.542L368.778,261.666L368.826,264.714L369.995,265.14L372.654,264.915L376.403,262.705L378.848,259.861L377.406,257.158L377.228,256.629L377.575,255.995L380.474,253.052L384.032,251.277L388.996,250.947L394.976,251.988L395.573,252.428L395.284,254.233L395.843,256.893L396.927,258.758L395.44,264.046L396.557,265.7L398.297,267.678L399.602,269.482L401.478,271.14L403.147,273.929L403.718,275.509L401.05,278.252L396.518,280.82L396.008,282.464L396.066,284.332L396.576,285.801L399.076,287.688L401.767,291.957L403.471,295.757L407.208,299.397L408.117,300.475L407.883,301.383L406.9,302.931L405.621,308.086L404.095,308.904L402.394,309.236L397.774,313.005L395.716,312.55L392.788,312.598L390.642,313.838L390.876,316.183L392.758,318.327L393.865,320.659L394.313,323.083L396.404,324.878L399.339,325.949L401.017,326.023L402.114,326.666L402.773,327.497L404.036,332.676L403.28,333.973L401.699,334.525L400.754,336.652L398.868,339.784L397.797,342.296L398.982,344.505L399.488,346.14L398.855,347.821L399.699,350.439L401.929,353.027L407.984,356.662L413.607,359.615L415.347,360.105L422.943,358.208L424.199,358.37L425.125,360.632L425.527,362.153L424.673,364.444L422.618,367.596L420.391,370.105L419.041,372.236L419.323,374.169L419.411,376.739L417.6,377.508L417.541,377L416.794,376.566L416.148,376.822L415.652,377.38L415.574,378.368L411.711,380.007L409.049,381.706L398.521,391.834L393.596,394.796L392.625,396.58L391.622,399.91L388.73,402.766L386.198,404.124L379.926,405.516L373.628,408.538L370.79,407.235L363.441,407.375L358.857,403.734L350.046,401.423L347.176,396.107L343.164,395.761L340.534,395.921L338.963,395.115L338.554,393.3L338.518,391.55L335.733,392.354L333.603,392.354L332.334,393.056L331.331,393.865L330.146,393.349L329.458,393.523L329.519,394.553L326.961,394.81L324.189,394.178L316.911,391.427L315.794,391.006L310.743,389.942L308.701,388.841L307.048,386.118L305.785,385.256L305.039,384.74L300.325,386.116L298.689,388.259L296.134,390.767L278.652,403.033L275.461,408.156L271.767,415.684L271.478,419.188L273.069,430.364L276.623,436.214L277.075,437.567L275.104,437.573L271.796,436.843L269.05,435.941L266.436,436.445L263.917,437.652L261.716,438.382L260.135,438.587L259.077,439.284L258.57,440.674L258.466,441.647L255.684,441.408L249.25,439.407L243.465,438.026L240.073,439.596L237.891,441.061L236.356,440.837L235.19,439.295L234.408,437.784L232.142,436.399L227.032,434.314L227.295,433.308L228.168,431.905L228.142,431.038L227.159,429.751L222.448,428.37L220.228,428.021L218.816,428.972L217.799,430.137L215.176,425.854L213.31,424.981L210.485,424.838L207.255,423.53L203.895,421.858L195.731,419.181L193.484,418.86L192.585,419.285L191.984,420.885L191.66,425.403L191.316,425.902L187.527,426.052L182.859,425.425L180.72,425.737L178.811,425.752L177.012,424.557L168.95,425.924L167.609,425.257L165.663,423.218L163.493,421.571L161.806,420.726L160.368,419.756L159.063,419.599L157.073,420.538L154.323,420.936L152.041,420.814L150.824,420.951L145.712,415.938L144.966,414.564L142.421,414.183L139.275,414.123L131.243,410.868L127.586,409.118L127.051,408.078L127.101,407.235L126.476,407.418L125.35,408.907L124.759,410.119L123.977,410.346L122.822,410.157L121.756,409.475L121.103,408.593L121.803,407.053L123.027,405.043L123.535,402.855L123.423,400.895L121.394,399.635L118.411,399.109L116.227,398.96L113.379,397.838L112.035,397.031L110.723,394.843L110.679,393.253L116.085,391.847L120.957,386.085L125.574,365.065L128.914,340.003L131.398,335.242L134.517,333.932L131.993,330.461L130.414,332.219L129.752,334.082L128.924,335.014L130.791,311.788L132.12,303.234L134.383,294.242L139.012,297.815L142.849,301.434L144.833,304.571L147.344,314.993L149.243,317.174L152.085,319.362L150.962,316.974L149.006,315.147L145.948,301.247L144.031,297.297L141.043,293.969L131.425,286.947L130.56,285.59L130.096,282.901L133.274,283.015L136.02,284.323L135.696,282.817L134.881,281.244L133.605,275.53L132.542,262.14L132.686,259.84L132.213,257.017L129.137,256.385L126.677,256.27L124.028,255.153L110.929,247.207L106.445,238.983L101.859,232.895L100.759,230.235L100.832,227.537L103.205,221.83L101.109,218.219L99.061,217.501L97.282,215.711L98.894,212.727L100.233,210.817L102.916,210.296L106.435,210.929L109.774,212.658L112.392,213.117L104.651,208.477L92.097,210.042L89.391,209.444L87.108,208.41L86.213,204.998L87.999,203.459L89.615,200.61L87.786,198.607L85.415,197.847L81.696,197.891L78.226,198.496L77.346,197.345L79.463,194.164L77.664,192.994L75.265,193.541L71.785,194.2L68.456,193.201L65.31,189.582L63.224,189.608L61.791,190.054L59.666,188.66L57.43,188.31L55.832,188.774L53.709,186.693L40.641,182.516L34.997,182.005L29.821,183.899L26.972,183.241L24.878,180.539L23.12,176L14.782,172.494L16.431,170.192L20.314,169.648L24.787,168.05L26.396,166L22.9,163.606L20.32,163.019L19.252,162.159L18.162,160.008L19.707,159.024L20.796,159.547L23.94,159.857L29.323,159.327L27.316,157.157L25.234,156.673L24.278,156.128L19.902,155.894L17.91,156.634L13.433,156.353L12.464,154.007L12,151.991L13.388,147.494L19.689,143.47L35.39,139.064L42.146,139.708L46.829,138.914L52.44,136.132L54.917,133.748L62.896,132.34L70.483,134.871L77.476,144.42L80.818,147.648L89,142.046L101.192,142.21L103.71,145.375L104.726,142.709L106.967,139.588L108.754,141.011L109.66,142.94L122.527,142.392L124.561,141.829L121.103,139.563L118.278,134.122L117.692,114.011L114.127,108.368L110.035,99.328L108.152,93.95L107.975,92.089L108.605,89.398L113.635,89.544L117.521,90.226L124.918,88.191L128.478,89.584L128.268,93.79L129.354,99.086L130.594,101.646L132.471,104.555L138.434,104.286L144.87,105.994L153.002,106.258L164.884,109.204L169.947,107.499L174.844,103.859L184.177,101.464L184.92,100.195L179.548,100.702L174.62,98.391L173.954,95.877L174.526,93.619L176.525,88.41L190.803,80.177L201.038,77.738L211.722,73.189L217.098,68.516L220.65,62.47L221.792,61.138L223.266,60.021L221.896,57.85L222.825,34.569L223.825,30.351L225.909,26.901L229.081,24.228L233.895,21.329L251.62,17.318L254.253,15.698L254.623,18.217L255.912,21.437L256.798,23.195L256.061,25.49L256.642,27.379L259.048,30.775L262.047,33.971L264.719,36.012L265.472,35.789L267.452,35.21L270.806,33.116L273.598,32.457L275.195,34.061L276.097,34.966L277.857,38.574L278.35,42.336L279.133,45.455L280.558,46.719L285.901,47.133L289.839,48.288L290.881,49.334L292.229,56.244L292.962,57.22L293.943,56.406L294.913,55.27L296.261,55.089L298.572,55.527L301.617,55.664L304.756,56.424L309.093,60.318L308.928,61.602L308.081,63.854L307.785,65.651L308.532,66.372L309.678,68.225L309.402,70.365L308.285,71.863L307.837,73.098L307.844,73.901L308.253,74.568L309.142,75.153L315.547,75.943L321.407,75.153L325.101,72.972L325.731,70.673L326.78,68.073L328.981,65.896L330.503,65.164L331.896,66.061L329.552,75.188L331.263,77.516L331.516,80.992L332.13,84.031L334.223,83.973L336.762,84.534L338.561,85.657L340.658,87.461L343.68,89.117L345.8,89.699L346.569,91.084L348.283,92.683L350.981,96.033L353.396,98.266L354.562,98.259L356.812,97.378L360.149,96.816L362.785,96.863L363.905,98.564L366.495,99.348L367.411,99.973L368.427,101.144L370.154,101.614L372.238,101.144L373.761,99.581L375.793,98.878L377.825,99.113L378.994,99.973L381.221,101.242L382.481,100.964L385.003,101.746L387.535,104.209L388.6,106.684L388.879,108.036L389.973,109.505L394.223,116.136L395.58,116.464L397.057,115.459L398.014,114.033L399.4,113.75L401.631,114.406L403.066,115.156L403.754,118.025L404.238,118.57L405.202,117.953L406.919,117.816L409.662,118.523L413.434,117.714L416.454,116.519L417.996,116.563L420.486,119.906L423.326,121.155L429.585,122.163L436.302,123.733L438.941,125.002L440.743,125.625L440.925,130.035L440.382,130.699L433.692,139.516L430.874,142.662L429.439,147.146L428.452,154.007L426.475,160.508L423.514,166.657L422.437,171.261L423.245,174.329L422.739,179.14L420.921,185.679L420.615,190.609L421.813,193.931ZM131.148,276.548L129.976,280.722L127.759,276.879L124.819,273.507L124.149,270.382L124.155,269.548L127.599,271.832Z" fill="none" stroke="currentColor" stroke-linejoin="round" stroke-width="6" opacity=".36" />
</svg>
