<svg xmlns="http://www.w3.org/2000/svg" viewBox="0 0 500 620" role="img" aria-labelledby="title desc">
  <!-- Boundary source: Natural Earth, Admin 0 Countries, 1:50m, v5.1.1. Public domain. https://www.naturalearthdata.com/downloads/50m-cultural-vectors/50m-admin-0-countries-2/ -->
  <!-- Projected with d3-geo Mercator and simplified only by the source dataset's 1:50m generalisation. -->
  <title id="title">Map outline of Italy</title>
  <desc id="desc">A geographically based outline of Italy, Sicily and Sardinia, derived from Natural Earth public-domain boundaries.</desc>
  <path d="M27.79,96.211L29.182,97.479L32.122,98.828L40.107,96.986L45.07,95.135L48.562,93.187L50.73,93.531L58.57,96.44L61.157,94.96L66.81,91.006L67.657,88.925L72.11,82.612L72.192,81.067L70.358,77.098L70.926,76.224L76.395,72.147L79.068,68.528L81.965,66.1L84.047,66.046L84.619,66.871L84.866,68.565L84.686,75.538L85.485,77.684L89.782,82.677L92.843,85.517L99.942,87.464L100.272,88.397L98.316,92.146L102.616,96.62L103.384,99.892L105.368,101.732L108.178,100.829L109.1,99.107L107.994,96.076L107.183,92.902L107.347,91.065L108.124,88.95L110.076,86L115.391,79.232L117.304,75.311L117.653,69.236L117.669,64.347L119.445,63.16L123.255,64.028L124.392,63.932L124.913,66.933L126.536,71.707L128.449,74.182L130.491,74.77L132.894,74.781L138.849,71.866L142.73,70.602L144.929,70.949L146.23,72.934L149.014,78.138L150.601,78.724L152.518,78.129L153.196,77.242L152.581,75.24L151.769,70.889L150.656,67.519L149.198,65.938L148.904,63.88L149.825,60.172L150.86,57.07L152.887,56.225L155.215,55.832L158.296,59.117L161.942,60.155L164.655,59.981L165.129,58.065L164.96,55.963L163.341,53.262L163.667,49.175L165.544,41.548L166.611,42.124L170.641,42.207L175.035,42.637L177.865,45.75L180.641,46.809L184.592,47.147L187.238,46.706L188.516,45.535L190.057,41.889L192.883,37.362L197.32,35.039L204.898,34.605L208.685,33.761L212.616,33.809L215.584,34.511L218.645,34.427L226.427,31.271L234.451,28.771L235.564,29.191L235.729,30.022L234.294,31.95L232.899,34.505L233.836,37.417L238.406,43.253L240.9,47.714L243.236,51.062L246.886,52.825L251.68,53.902L255.741,54.29L259.986,55.552L274.565,58.661L281.903,59.522L287.462,59.659L295.89,61.719L295.075,65.064L293.366,65.901L290.402,67.849L286.999,70.52L283.828,73.524L282.974,76.772L283.832,78.9L284.69,79.634L285.847,78.982L287.533,79.384L289.657,80.546L293.181,81.678L293.279,82.796L292.542,84.225L289.79,86.772L287.317,89.639L287.07,91.392L287.368,92.67L288.23,93.44L291.899,93.093L292.437,94.14L290.657,101.496L291.21,102.75L294.424,103.923L296.76,105.691L301.155,110.34L302.903,114.105L301.7,115.366L298.94,115.99L296.686,115.668L299.234,113.393L293.013,105.134L290.198,105.148L286.462,108.642L276.074,105.109L274.083,106.536L272.613,109.335L269.006,112.805L263.899,114.338L258.207,118.152L252.205,120.848L247.623,122.883L244.996,122.526L249.171,118.115L247.391,118.037L241.852,121.148L238.661,123.778L237.638,128.191L236.709,135.459L239.143,137.385L243.405,146.938L248.661,151.016L247.638,154.903L246.258,157.973L243.083,160.626L240.457,158.659L238.845,158.708L237.619,164.913L239.892,181.428L243.557,192.963L247.191,197.981L255.392,205.774L264.059,209.875L279.645,222.951L288.191,227.079L290.437,229.317L295.62,239.352L300.092,250.906L304.918,268.958L308.352,277.817L315.267,287.802L329.638,302.047L342.699,312.428L354.848,318.829L364.33,319.951L386.773,318.536L390.685,319.148L394.824,320.87L395.808,325.299L394.287,328.288L389.568,331.392L384.754,335.687L384.221,341.524L388.721,345.631L410.367,356.503L432.508,365.558L439.403,370.172L447.392,377.335L466.691,387.158L469.948,391.93L481.673,402.171L486.989,410.055L488,416.159L485.46,422.345L484.292,426.704L482.296,431.004L477.302,429.375L471.626,424.958L463.08,406.945L447.471,405.115L444.244,403.783L438.701,400.683L438.368,398.637L437,396.076L435.581,395.213L429.611,394.648L425.475,397.573L420.61,404.509L415.095,414.46L409.489,429.003L409.164,434.86L412.21,440.528L421.304,443.685L428.325,448.719L432.955,453.967L433.292,466.619L435.365,473.778L432.312,477.844L426.408,476.788L418.541,479.373L412.97,483.988L410.653,488.382L411.265,499.746L410.116,504.076L399.552,512.239L394.001,520.571L392.621,524.023L390.497,527.934L377.157,528.074L373.997,523.229L373.887,516.028L376.181,511.587L381.085,509.507L384.393,500.262L383.354,493.568L385.283,490.597L387.106,488.495L390.845,487.269L396.114,486.095L396.643,476.72L392.527,472.449L391.085,466.47L389.164,455.369L382.37,441.174L378.729,428.459L375.883,422.171L371.563,418.887L363.766,418.923L359.897,417.986L346.102,409.11L345.142,407.757L345.228,405.398L347.517,401.821L345.973,396.978L344.338,392.399L341.633,388.491L338.67,386.458L332.468,387.709L330.289,388.68L326.372,388.347L323.295,390.084L321.578,390.139L326.419,383.265L325.118,381.643L320.332,378.817L313.84,378.389L312.041,378.047L310.978,379.808L309.712,378.837L309.845,375.757L302.303,361.946L297.231,356.31L294.675,355.304L290.061,356.495L282.319,354.021L277.701,353.468L275.153,354.065L271.351,355.872L269.438,354.678L268.763,352.823L261.739,347.058L252.973,343.795L235.905,325.373L230.672,318.46L219.904,310.834L213.091,299.7L207.516,295.607L199.402,292.327L197.532,292.738L195.09,293.967L193.177,294.142L191.652,292.69L193.2,291.195L194.925,290.515L194.243,286.238L185.011,275.131L179.606,271.545L178.081,269.335L176.956,266.307L175.803,264.313L173.243,263.17L171.06,263.365L168.034,262.602L168.132,257.243L168.735,253.12L168.273,249.615L165.333,240.385L160.233,232.54L157.234,213.723L154.917,208.407L149.28,204.365L136.564,199.829L118.841,187.617L115.093,187.406L104.431,182.646L97.826,181.829L89.241,186.107L78.821,197.852L70.362,210L67.284,212.35L56.379,216.478L46.74,218.449L46.634,215.345L46.293,213.01L47.923,210.438L50.612,207.408L53.094,203.602L54.125,200.836L53.639,198.999L52.522,196.268L51.005,196.071L41.832,198.363L39.73,197.771L32.941,194.204L25.63,189.816L22.937,186.691L21.918,183.53L22.682,181.499L22.071,179.525L20.64,176.858L21.933,173.825L24.211,170.042L25.352,167.475L27.261,166.807L28.174,165.241L26.649,158.988L25.853,157.984L24.529,157.207L22.502,157.119L18.958,155.825L16.434,153.658L15.893,150.731L14.556,147.915L12.282,145.326L12,142.494L14.591,140.997L18.127,140.939L20.612,141.489L26.191,136.937L28.245,136.536L30.087,135.548L31.632,129.324L32.819,127.455L33.102,126.358L32.004,125.057L27.492,120.661L25.434,116.072L22.184,110.918L19.166,108.639L18.55,106.865L18.48,104.609L19.095,102.624L24.568,99.523ZM245.278,320.752L245.247,320.33L244.933,320.37L244.812,320.625L244.933,320.797ZM247.129,210.976L248.308,208.103L247.869,206.052L245.357,206.46L243.581,209.129L244.765,211.384ZM163.228,268.597L164.561,270.73L164.717,271.967L163.824,273.366L164.2,276.526L160.84,273.906L155.756,275.229L152.636,274.949L151.773,272.597L152.487,271.216L157.332,270.917L158.837,270.243L161.777,270.559ZM305.455,384.489L303.664,384.946L302.621,384.323L302.052,383.511L302.762,381.511L306.411,382.699L306.361,383.824ZM229.708,587.764L227.783,588.317L225.266,586.595L225.098,584.176L225.564,583.451L228.622,584.561L229.579,586.796ZM371.218,513.734L368.501,519.537L367.168,521.766L357.486,535.919L356.376,539.181L355.694,542.723L354.691,545.823L353.335,548.744L352.068,552.452L352.315,556.652L352.77,558.711L353.934,560.059L355.847,561.328L357.317,563.271L355.063,565.043L357.549,568.593L359.661,570.697L359.944,572.797L359.897,574.904L355.506,578.847L353.789,581.016L352.723,583.642L352.26,586.35L352.743,588.794L352.594,591.229L348.172,590.926L343.644,589.442L339.081,590.1L332.593,587.285L330.23,586.776L328.078,585.677L322.676,576.936L318.332,573.237L313.671,570.358L308.909,570.183L304.138,570.51L299.928,568.735L291.358,562.776L282.28,558.003L278.426,554.89L276.666,552.795L274.612,551.405L269.41,550.026L264.745,546.788L262.621,546.551L258.05,546.946L255.71,546.721L253.35,545.581L248.795,541.77L245.89,536.479L245.133,534.143L247.191,528.093L249.633,522.276L251.801,520.643L254.318,519.472L255.843,517.748L257.129,515.637L261.797,521.726L263.887,523.197L266.004,522.868L269.759,520.688L270.073,518.299L274.212,515.265L279.477,515.208L281.907,515.766L283.185,518.508L285.192,519.353L287.513,519.716L295.149,524.936L297.29,525.787L299.457,525.931L305.388,523.742L309.94,522.908L319.481,524.115L324.64,522.804L328.242,522.654L333.491,520.638L337.525,517.285L339.63,516.457L341.888,516.218L347.349,516.427L352.841,517.185L355.142,516.402L357.066,514.208L359.297,513.22L361.751,513.886L368.093,510.127L370.888,509.87L373.55,511.318ZM132.596,375.135L134.604,378.526L139.112,392.391L139.551,395.383L138.649,398.446L137.5,400.619L133.036,407.564L133.698,413.303L135.356,416.843L135.595,420.764L134.764,425.618L131.993,455.329L130.652,460.559L129.805,465.095L126.748,466.465L122.804,465.017L117.83,462.465L115.532,462.619L113.22,463.492L111.311,462.751L109.488,461.306L108.135,471.445L105.885,475.553L102.463,478.177L99.245,478.343L95.928,477.464L93.118,477.471L90.985,475.523L89.296,472.114L86.602,467.968L83.87,463.039L83.572,458.577L83.106,448.719L83.89,446.563L85.031,444.494L85.591,440.07L85.195,436.211L85.995,434.832L87.586,436.211L88.782,435.694L88.708,433.705L89.072,430.072L86.991,427.026L83.455,425.991L83.114,422.8L83.486,419.683L85.352,417.589L85.983,414.801L86.003,406.287L83.51,403.146L82.553,398.384L81.263,395.331L78.947,392.262L76.328,389.762L74.709,387.347L74.344,381.022L75.266,375.736L76.085,373.472L76.928,373.807L79.535,376.436L81.667,377.029L85.889,377.666L90.04,376.824L95.14,374.432L100.048,371.529L107.151,362.991L111.53,361.256L113.772,359.004L114.537,355.96L116.395,355.165L118.586,358.123L121.307,358.431L125.497,360.871L127.304,363.205L128.853,366.01L130.335,367.242L131.926,367.946L132.161,368.606L130.899,369.266L129.453,372.474L130.268,373.397ZM86.308,470.19L84.003,475.299L81.573,471.682L81.479,468.574L81.808,467.688L84.772,468.996ZM78.566,366.746L77.23,369.177L75.34,369.001L76.077,367.201L77.818,363.59L79.938,362.377L80.883,363.457L79.887,365.527Z" fill="currentColor" />
  <path d="M27.79,96.211L29.182,97.479L32.122,98.828L40.107,96.986L45.07,95.135L48.562,93.187L50.73,93.531L58.57,96.44L61.157,94.96L66.81,91.006L67.657,88.925L72.11,82.612L72.192,81.067L70.358,77.098L70.926,76.224L76.395,72.147L79.068,68.528L81.965,66.1L84.047,66.046L84.619,66.871L84.866,68.565L84.686,75.538L85.485,77.684L89.782,82.677L92.843,85.517L99.942,87.464L100.272,88.397L98.316,92.146L102.616,96.62L103.384,99.892L105.368,101.732L108.178,100.829L109.1,99.107L107.994,96.076L107.183,92.902L107.347,91.065L108.124,88.95L110.076,86L115.391,79.232L117.304,75.311L117.653,69.236L117.669,64.347L119.445,63.16L123.255,64.028L124.392,63.932L124.913,66.933L126.536,71.707L128.449,74.182L130.491,74.77L132.894,74.781L138.849,71.866L142.73,70.602L144.929,70.949L146.23,72.934L149.014,78.138L150.601,78.724L152.518,78.129L153.196,77.242L152.581,75.24L151.769,70.889L150.656,67.519L149.198,65.938L148.904,63.88L149.825,60.172L150.86,57.07L152.887,56.225L155.215,55.832L158.296,59.117L161.942,60.155L164.655,59.981L165.129,58.065L164.96,55.963L163.341,53.262L163.667,49.175L165.544,41.548L166.611,42.124L170.641,42.207L175.035,42.637L177.865,45.75L180.641,46.809L184.592,47.147L187.238,46.706L188.516,45.535L190.057,41.889L192.883,37.362L197.32,35.039L204.898,34.605L208.685,33.761L212.616,33.809L215.584,34.511L218.645,34.427L226.427,31.271L234.451,28.771L235.564,29.191L235.729,30.022L234.294,31.95L232.899,34.505L233.836,37.417L238.406,43.253L240.9,47.714L243.236,51.062L246.886,52.825L251.68,53.902L255.741,54.29L259.986,55.552L274.565,58.661L281.903,59.522L287.462,59.659L295.89,61.719L295.075,65.064L293.366,65.901L290.402,67.849L286.999,70.52L283.828,73.524L282.974,76.772L283.832,78.9L284.69,79.634L285.847,78.982L287.533,79.384L289.657,80.546L293.181,81.678L293.279,82.796L292.542,84.225L289.79,86.772L287.317,89.639L287.07,91.392L287.368,92.67L288.23,93.44L291.899,93.093L292.437,94.14L290.657,101.496L291.21,102.75L294.424,103.923L296.76,105.691L301.155,110.34L302.903,114.105L301.7,115.366L298.94,115.99L296.686,115.668L299.234,113.393L293.013,105.134L290.198,105.148L286.462,108.642L276.074,105.109L274.083,106.536L272.613,109.335L269.006,112.805L263.899,114.338L258.207,118.152L252.205,120.848L247.623,122.883L244.996,122.526L249.171,118.115L247.391,118.037L241.852,121.148L238.661,123.778L237.638,128.191L236.709,135.459L239.143,137.385L243.405,146.938L248.661,151.016L247.638,154.903L246.258,157.973L243.083,160.626L240.457,158.659L238.845,158.708L237.619,164.913L239.892,181.428L243.557,192.963L247.191,197.981L255.392,205.774L264.059,209.875L279.645,222.951L288.191,227.079L290.437,229.317L295.62,239.352L300.092,250.906L304.918,268.958L308.352,277.817L315.267,287.802L329.638,302.047L342.699,312.428L354.848,318.829L364.33,319.951L386.773,318.536L390.685,319.148L394.824,320.87L395.808,325.299L394.287,328.288L389.568,331.392L384.754,335.687L384.221,341.524L388.721,345.631L410.367,356.503L432.508,365.558L439.403,370.172L447.392,377.335L466.691,387.158L469.948,391.93L481.673,402.171L486.989,410.055L488,416.159L485.46,422.345L484.292,426.704L482.296,431.004L477.302,429.375L471.626,424.958L463.08,406.945L447.471,405.115L444.244,403.783L438.701,400.683L438.368,398.637L437,396.076L435.581,395.213L429.611,394.648L425.475,397.573L420.61,404.509L415.095,414.46L409.489,429.003L409.164,434.86L412.21,440.528L421.304,443.685L428.325,448.719L432.955,453.967L433.292,466.619L435.365,473.778L432.312,477.844L426.408,476.788L418.541,479.373L412.97,483.988L410.653,488.382L411.265,499.746L410.116,504.076L399.552,512.239L394.001,520.571L392.621,524.023L390.497,527.934L377.157,528.074L373.997,523.229L373.887,516.028L376.181,511.587L381.085,509.507L384.393,500.262L383.354,493.568L385.283,490.597L387.106,488.495L390.845,487.269L396.114,486.095L396.643,476.72L392.527,472.449L391.085,466.47L389.164,455.369L382.37,441.174L378.729,428.459L375.883,422.171L371.563,418.887L363.766,418.923L359.897,417.986L346.102,409.11L345.142,407.757L345.228,405.398L347.517,401.821L345.973,396.978L344.338,392.399L341.633,388.491L338.67,386.458L332.468,387.709L330.289,388.68L326.372,388.347L323.295,390.084L321.578,390.139L326.419,383.265L325.118,381.643L320.332,378.817L313.84,378.389L312.041,378.047L310.978,379.808L309.712,378.837L309.845,375.757L302.303,361.946L297.231,356.31L294.675,355.304L290.061,356.495L282.319,354.021L277.701,353.468L275.153,354.065L271.351,355.872L269.438,354.678L268.763,352.823L261.739,347.058L252.973,343.795L235.905,325.373L230.672,318.46L219.904,310.834L213.091,299.7L207.516,295.607L199.402,292.327L197.532,292.738L195.09,293.967L193.177,294.142L191.652,292.69L193.2,291.195L194.925,290.515L194.243,286.238L185.011,275.131L179.606,271.545L178.081,269.335L176.956,266.307L175.803,264.313L173.243,263.17L171.06,263.365L168.034,262.602L168.132,257.243L168.735,253.12L168.273,249.615L165.333,240.385L160.233,232.54L157.234,213.723L154.917,208.407L149.28,204.365L136.564,199.829L118.841,187.617L115.093,187.406L104.431,182.646L97.826,181.829L89.241,186.107L78.821,197.852L70.362,210L67.284,212.35L56.379,216.478L46.74,218.449L46.634,215.345L46.293,213.01L47.923,210.438L50.612,207.408L53.094,203.602L54.125,200.836L53.639,198.999L52.522,196.268L51.005,196.071L41.832,198.363L39.73,197.771L32.941,194.204L25.63,189.816L22.937,186.691L21.918,183.53L22.682,181.499L22.071,179.525L20.64,176.858L21.933,173.825L24.211,170.042L25.352,167.475L27.261,166.807L28.174,165.241L26.649,158.988L25.853,157.984L24.529,157.207L22.502,157.119L18.958,155.825L16.434,153.658L15.893,150.731L14.556,147.915L12.282,145.326L12,142.494L14.591,140.997L18.127,140.939L20.612,141.489L26.191,136.937L28.245,136.536L30.087,135.548L31.632,129.324L32.819,127.455L33.102,126.358L32.004,125.057L27.492,120.661L25.434,116.072L22.184,110.918L19.166,108.639L18.55,106.865L18.48,104.609L19.095,102.624L24.568,99.523ZM245.278,320.752L245.247,320.33L244.933,320.37L244.812,320.625L244.933,320.797ZM247.129,210.976L248.308,208.103L247.869,206.052L245.357,206.46L243.581,209.129L244.765,211.384ZM163.228,268.597L164.561,270.73L164.717,271.967L163.824,273.366L164.2,276.526L160.84,273.906L155.756,275.229L152.636,274.949L151.773,272.597L152.487,271.216L157.332,270.917L158.837,270.243L161.777,270.559ZM305.455,384.489L303.664,384.946L302.621,384.323L302.052,383.511L302.762,381.511L306.411,382.699L306.361,383.824ZM229.708,587.764L227.783,588.317L225.266,586.595L225.098,584.176L225.564,583.451L228.622,584.561L229.579,586.796ZM371.218,513.734L368.501,519.537L367.168,521.766L357.486,535.919L356.376,539.181L355.694,542.723L354.691,545.823L353.335,548.744L352.068,552.452L352.315,556.652L352.77,558.711L353.934,560.059L355.847,561.328L357.317,563.271L355.063,565.043L357.549,568.593L359.661,570.697L359.944,572.797L359.897,574.904L355.506,578.847L353.789,581.016L352.723,583.642L352.26,586.35L352.743,588.794L352.594,591.229L348.172,590.926L343.644,589.442L339.081,590.1L332.593,587.285L330.23,586.776L328.078,585.677L322.676,576.936L318.332,573.237L313.671,570.358L308.909,570.183L304.138,570.51L299.928,568.735L291.358,562.776L282.28,558.003L278.426,554.89L276.666,552.795L274.612,551.405L269.41,550.026L264.745,546.788L262.621,546.551L258.05,546.946L255.71,546.721L253.35,545.581L248.795,541.77L245.89,536.479L245.133,534.143L247.191,528.093L249.633,522.276L251.801,520.643L254.318,519.472L255.843,517.748L257.129,515.637L261.797,521.726L263.887,523.197L266.004,522.868L269.759,520.688L270.073,518.299L274.212,515.265L279.477,515.208L281.907,515.766L283.185,518.508L285.192,519.353L287.513,519.716L295.149,524.936L297.29,525.787L299.457,525.931L305.388,523.742L309.94,522.908L319.481,524.115L324.64,522.804L328.242,522.654L333.491,520.638L337.525,517.285L339.63,516.457L341.888,516.218L347.349,516.427L352.841,517.185L355.142,516.402L357.066,514.208L359.297,513.22L361.751,513.886L368.093,510.127L370.888,509.87L373.55,511.318ZM132.596,375.135L134.604,378.526L139.112,392.391L139.551,395.383L138.649,398.446L137.5,400.619L133.036,407.564L133.698,413.303L135.356,416.843L135.595,420.764L134.764,425.618L131.993,455.329L130.652,460.559L129.805,465.095L126.748,466.465L122.804,465.017L117.83,462.465L115.532,462.619L113.22,463.492L111.311,462.751L109.488,461.306L108.135,471.445L105.885,475.553L102.463,478.177L99.245,478.343L95.928,477.464L93.118,477.471L90.985,475.523L89.296,472.114L86.602,467.968L83.87,463.039L83.572,458.577L83.106,448.719L83.89,446.563L85.031,444.494L85.591,440.07L85.195,436.211L85.995,434.832L87.586,436.211L88.782,435.694L88.708,433.705L89.072,430.072L86.991,427.026L83.455,425.991L83.114,422.8L83.486,419.683L85.352,417.589L85.983,414.801L86.003,406.287L83.51,403.146L82.553,398.384L81.263,395.331L78.947,392.262L76.328,389.762L74.709,387.347L74.344,381.022L75.266,375.736L76.085,373.472L76.928,373.807L79.535,376.436L81.667,377.029L85.889,377.666L90.04,376.824L95.14,374.432L100.048,371.529L107.151,362.991L111.53,361.256L113.772,359.004L114.537,355.96L116.395,355.165L118.586,358.123L121.307,358.431L125.497,360.871L127.304,363.205L128.853,366.01L130.335,367.242L131.926,367.946L132.161,368.606L130.899,369.266L129.453,372.474L130.268,373.397ZM86.308,470.19L84.003,475.299L81.573,471.682L81.479,468.574L81.808,467.688L84.772,468.996ZM78.566,366.746L77.23,369.177L75.34,369.001L76.077,367.201L77.818,363.59L79.938,362.377L80.883,363.457L79.887,365.527Z" fill="none" stroke="currentColor" stroke-linejoin="round" stroke-width="6" opacity=".36" />
</svg>
