<svg xmlns="http://www.w3.org/2000/svg" viewBox="0 0 500 620" role="img" aria-labelledby="title desc">
  <title id="title">Stylised silhouette map of Italy</title>
  <desc id="desc">An original, simplified outline of Italy and its two principal islands for the Somm Atlas interface.</desc>
  <g fill="currentColor">
    <path d="M91 61C113 44 143 37 170 45C196 52 216 67 241 72C272 78 302 70 331 81C351 89 363 105 379 120C392 132 414 139 423 157C431 174 420 190 402 199C386 207 366 209 349 214C333 219 324 230 318 244C313 256 316 272 328 279C343 287 365 282 380 291C395 300 397 318 404 333C411 349 430 361 432 379C434 394 422 406 408 410C393 415 382 403 370 397C358 391 345 401 345 415C345 434 355 451 359 469C363 486 357 504 345 516C333 528 315 530 301 521C285 511 276 494 264 481C248 463 225 454 207 438C189 421 178 401 181 378C183 356 202 340 220 330C237 320 253 309 265 292C275 278 279 260 269 247C257 232 235 231 218 226C198 220 182 207 171 190C160 173 161 153 149 139C136 123 111 121 96 106C83 93 80 72 91 61Z"/>
    <path d="M87 401C101 390 122 390 136 401C151 412 157 434 149 451C140 470 120 483 99 480C79 477 62 462 61 443C60 426 73 411 87 401Z"/>
    <path d="M250 545C270 527 302 523 325 538C346 551 354 578 342 599C331 618 304 627 282 617C260 607 239 584 241 563C242 556 245 550 250 545Z"/>
  </g>
  <g fill="none" stroke="currentColor" stroke-linejoin="round" stroke-width="8" opacity=".36">
    <path d="M91 61C113 44 143 37 170 45C196 52 216 67 241 72C272 78 302 70 331 81C351 89 363 105 379 120C392 132 414 139 423 157C431 174 420 190 402 199C386 207 366 209 349 214C333 219 324 230 318 244C313 256 316 272 328 279C343 287 365 282 380 291C395 300 397 318 404 333C411 349 430 361 432 379C434 394 422 406 408 410C393 415 382 403 370 397C358 391 345 401 345 415C345 434 355 451 359 469C363 486 357 504 345 516C333 528 315 530 301 521C285 511 276 494 264 481C248 463 225 454 207 438C189 421 178 401 181 378C183 356 202 340 220 330C237 320 253 309 265 292C275 278 279 260 269 247C257 232 235 231 218 226C198 220 182 207 171 190C160 173 161 153 149 139C136 123 111 121 96 106C83 93 80 72 91 61Z"/>
    <path d="M87 401C101 390 122 390 136 401C151 412 157 434 149 451C140 470 120 483 99 480C79 477 62 462 61 443C60 426 73 411 87 401Z"/>
    <path d="M250 545C270 527 302 523 325 538C346 551 354 578 342 599C331 618 304 627 282 617C260 607 239 584 241 563C242 556 245 550 250 545Z"/>
  </g>
</svg>
